<mxfile host="app.diagrams.net" modified="2023-02-03T05:25:02.054Z" agent="5.0 (Windows)" etag="2vLmrNhJo4WwYhaLoAeI" version="20.8.16" type="github">
  <diagram name="Page-1" id="TU4BH2JNrsWGjBK4cNtg">
    <mxGraphModel dx="1434" dy="774" grid="1" gridSize="10" guides="1" tooltips="1" connect="1" arrows="1" fold="1" page="1" pageScale="1" pageWidth="850" pageHeight="1100" math="0" shadow="0">
      <root>
        <mxCell id="0" />
        <mxCell id="1" parent="0" />
        <mxCell id="niV-7wRhD8lakKL9BLXB-7" style="edgeStyle=orthogonalEdgeStyle;rounded=0;orthogonalLoop=1;jettySize=auto;html=1;entryX=0.5;entryY=0;entryDx=0;entryDy=0;" edge="1" parent="1" source="niV-7wRhD8lakKL9BLXB-1" target="niV-7wRhD8lakKL9BLXB-6">
          <mxGeometry relative="1" as="geometry" />
        </mxCell>
        <mxCell id="niV-7wRhD8lakKL9BLXB-1" value="start" style="ellipse;whiteSpace=wrap;html=1;" vertex="1" parent="1">
          <mxGeometry x="320" y="10" width="120" height="50" as="geometry" />
        </mxCell>
        <mxCell id="niV-7wRhD8lakKL9BLXB-8" style="edgeStyle=orthogonalEdgeStyle;rounded=0;orthogonalLoop=1;jettySize=auto;html=1;" edge="1" parent="1" source="niV-7wRhD8lakKL9BLXB-6">
          <mxGeometry relative="1" as="geometry">
            <mxPoint x="380" y="160" as="targetPoint" />
          </mxGeometry>
        </mxCell>
        <mxCell id="niV-7wRhD8lakKL9BLXB-6" value="variable sum =0" style="shape=parallelogram;perimeter=parallelogramPerimeter;whiteSpace=wrap;html=1;fixedSize=1;" vertex="1" parent="1">
          <mxGeometry x="320" y="80" width="120" height="60" as="geometry" />
        </mxCell>
        <mxCell id="niV-7wRhD8lakKL9BLXB-10" style="edgeStyle=orthogonalEdgeStyle;rounded=0;orthogonalLoop=1;jettySize=auto;html=1;" edge="1" parent="1" source="niV-7wRhD8lakKL9BLXB-9">
          <mxGeometry relative="1" as="geometry">
            <mxPoint x="380" y="250" as="targetPoint" />
          </mxGeometry>
        </mxCell>
        <mxCell id="niV-7wRhD8lakKL9BLXB-9" value="&lt;div&gt;Input n&lt;/div&gt;" style="shape=parallelogram;perimeter=parallelogramPerimeter;whiteSpace=wrap;html=1;fixedSize=1;" vertex="1" parent="1">
          <mxGeometry x="320" y="160" width="120" height="60" as="geometry" />
        </mxCell>
        <mxCell id="niV-7wRhD8lakKL9BLXB-13" style="edgeStyle=orthogonalEdgeStyle;rounded=0;orthogonalLoop=1;jettySize=auto;html=1;entryX=0.5;entryY=0;entryDx=0;entryDy=0;" edge="1" parent="1" source="niV-7wRhD8lakKL9BLXB-11" target="niV-7wRhD8lakKL9BLXB-12">
          <mxGeometry relative="1" as="geometry" />
        </mxCell>
        <mxCell id="niV-7wRhD8lakKL9BLXB-11" value="for loop i from 0-n" style="rounded=0;whiteSpace=wrap;html=1;" vertex="1" parent="1">
          <mxGeometry x="320" y="250" width="120" height="60" as="geometry" />
        </mxCell>
        <mxCell id="niV-7wRhD8lakKL9BLXB-14" style="edgeStyle=orthogonalEdgeStyle;rounded=0;orthogonalLoop=1;jettySize=auto;html=1;" edge="1" parent="1" source="niV-7wRhD8lakKL9BLXB-12">
          <mxGeometry relative="1" as="geometry">
            <mxPoint x="380" y="430" as="targetPoint" />
          </mxGeometry>
        </mxCell>
        <mxCell id="niV-7wRhD8lakKL9BLXB-12" value="&lt;div&gt;if i/2==0&lt;/div&gt;&lt;div&gt;sum +=i&lt;br&gt;&lt;/div&gt;" style="rounded=0;whiteSpace=wrap;html=1;" vertex="1" parent="1">
          <mxGeometry x="320" y="340" width="120" height="60" as="geometry" />
        </mxCell>
        <mxCell id="niV-7wRhD8lakKL9BLXB-16" style="edgeStyle=orthogonalEdgeStyle;rounded=0;orthogonalLoop=1;jettySize=auto;html=1;" edge="1" parent="1" source="niV-7wRhD8lakKL9BLXB-15">
          <mxGeometry relative="1" as="geometry">
            <mxPoint x="380" y="510" as="targetPoint" />
          </mxGeometry>
        </mxCell>
        <mxCell id="niV-7wRhD8lakKL9BLXB-15" value="Print sum" style="rounded=0;whiteSpace=wrap;html=1;" vertex="1" parent="1">
          <mxGeometry x="320" y="430" width="120" height="60" as="geometry" />
        </mxCell>
        <mxCell id="niV-7wRhD8lakKL9BLXB-17" value="Stop" style="ellipse;whiteSpace=wrap;html=1;" vertex="1" parent="1">
          <mxGeometry x="320" y="510" width="120" height="50" as="geometry" />
        </mxCell>
      </root>
    </mxGraphModel>
  </diagram>
</mxfile>
